<svg width="24" height="24" viewBox="0 0 24 24" fill="none" xmlns="http://www.w3.org/2000/svg">
<g id="Analytics outlined">
<path id="Vector" d="M9.30778 10.8847C9.42474 10.8172 9.52186 10.7201 9.58938 10.6031C9.65689 10.4862 9.69242 10.3536 9.69239 10.2185V3.29766C9.6917 3.17506 9.66171 3.0544 9.60489 2.94575C9.54808 2.83709 9.46611 2.74359 9.3658 2.67305C9.2655 2.6025 9.14978 2.55695 9.02829 2.5402C8.9068 2.52344 8.78306 2.53597 8.6674 2.57674C6.4222 3.37112 4.53408 4.94007 3.34246 7.00156C2.15083 9.06304 1.73385 11.4819 2.16649 13.8232C2.18891 13.9442 2.24009 14.0582 2.31572 14.1553C2.39135 14.2525 2.48922 14.3301 2.6011 14.3816C2.70192 14.4288 2.81191 14.4531 2.92321 14.4528C3.05822 14.4528 3.19087 14.4174 3.30782 14.3499L9.30778 10.8847ZM8.15394 4.46268V9.77445L3.55013 12.4303C3.53859 12.2852 3.53859 12.1391 3.53859 11.9968C3.53996 10.4381 3.97156 8.90988 4.78588 7.58057C5.60021 6.25127 6.76567 5.17237 8.15394 4.46268ZM20.6865 7.0484C20.6779 7.03109 20.6692 7.01283 20.6587 6.99553C20.6481 6.97823 20.6394 6.96381 20.6288 6.94843C19.7472 5.44295 18.4869 4.19419 16.9733 3.32612C15.4596 2.45806 13.7451 2.00089 12.0001 2C11.7961 2 11.6004 2.08102 11.4561 2.22523C11.3119 2.36944 11.2308 2.56504 11.2308 2.76899V11.596L3.65301 16.0081C3.56508 16.059 3.48812 16.1269 3.42658 16.2078C3.36504 16.2886 3.32014 16.3809 3.29448 16.4792C3.26882 16.5775 3.26291 16.68 3.27708 16.7806C3.29125 16.8812 3.32523 16.978 3.37705 17.0654C4.48884 18.9581 6.19281 20.4323 8.22598 21.2607C10.2592 22.0891 12.5085 22.2255 14.627 21.6489C16.7454 21.0723 18.6152 19.8148 19.9477 18.0704C21.2802 16.326 22.0014 14.1917 22 11.9968C22.0022 10.261 21.5493 8.55481 20.6865 7.0484ZM12.7693 3.57258C13.9893 3.68484 15.1704 4.06046 16.231 4.6735C17.2916 5.28655 18.2065 6.12241 18.9125 7.12337L12.7693 10.7001V3.57258ZM12.0001 20.4557C10.6572 20.4522 9.33425 20.131 8.13947 19.5181C6.94469 18.9053 5.91206 18.0184 5.12608 16.9299L12.376 12.7091L12.3972 12.6956L19.6827 8.45372C20.2774 9.74249 20.5381 11.1601 20.4409 12.5761C20.3437 13.992 19.8916 15.3607 19.1264 16.5562C18.3612 17.7516 17.3073 18.7354 16.062 19.4168C14.8166 20.0983 13.4198 20.4555 12.0001 20.4557Z" fill="#6B7280"/>
</g>
</svg>
