<svg width="24" height="24" viewBox="0 0 24 24" fill="none" xmlns="http://www.w3.org/2000/svg">
<g id="Frame">
<path id="Vector" d="M22.9498 14.1C22.871 14.1591 22.7813 14.2021 22.6859 14.2266C22.5905 14.251 22.4912 14.2564 22.3937 14.2425C22.2962 14.2286 22.2024 14.1956 22.1177 14.1454C22.0329 14.0952 21.9589 14.0288 21.8998 13.95C21.4477 13.3424 20.8593 12.8494 20.182 12.5107C19.5046 12.172 18.7571 11.9971 17.9998 12C17.8523 12 17.7081 11.9565 17.5852 11.875C17.4623 11.7935 17.3662 11.6775 17.3089 11.5416C17.2699 11.4493 17.2499 11.3502 17.2499 11.25C17.2499 11.1499 17.2699 11.0508 17.3089 10.9585C17.3662 10.8226 17.4623 10.7066 17.5852 10.6251C17.7081 10.5436 17.8523 10.5001 17.9998 10.5C18.4206 10.5 18.833 10.382 19.1901 10.1593C19.5472 9.93665 19.8347 9.61831 20.0199 9.24046C20.2051 8.8626 20.2807 8.44037 20.238 8.02173C20.1953 7.60308 20.036 7.2048 19.7783 6.87213C19.5206 6.53946 19.1748 6.28572 18.7801 6.13975C18.3854 5.99378 17.9577 5.96142 17.5455 6.04634C17.1334 6.13127 16.7533 6.33008 16.4484 6.62019C16.1436 6.91031 15.9262 7.28009 15.821 7.68755C15.7964 7.78296 15.7532 7.87259 15.694 7.95132C15.6347 8.03004 15.5605 8.09633 15.4757 8.14639C15.3908 8.19644 15.2969 8.22929 15.1993 8.24305C15.1017 8.25682 15.0024 8.25123 14.907 8.22661C14.8116 8.20198 14.7219 8.15881 14.6432 8.09955C14.5645 8.04029 14.4982 7.9661 14.4481 7.88122C14.3981 7.79634 14.3652 7.70243 14.3515 7.60486C14.3377 7.50729 14.3433 7.40796 14.3679 7.31255C14.5139 6.74753 14.7898 6.22439 15.1736 5.78475C15.5574 5.34511 16.0385 5.00111 16.5786 4.78012C17.1187 4.55913 17.703 4.46725 18.2848 4.51179C18.8667 4.55633 19.4302 4.73606 19.9304 5.03668C20.4306 5.3373 20.8537 5.75051 21.1661 6.24344C21.4785 6.73636 21.6715 7.2954 21.7299 7.87606C21.7882 8.45671 21.7102 9.04297 21.5021 9.58818C21.2939 10.1334 20.9615 10.6225 20.531 11.0166C21.5509 11.4582 22.4374 12.1589 23.1026 13.0491C23.1617 13.1281 23.2046 13.218 23.2289 13.3136C23.2532 13.4092 23.2584 13.5087 23.2442 13.6063C23.23 13.7039 23.1967 13.7978 23.1462 13.8825C23.0957 13.9672 23.0289 14.0412 22.9498 14.1ZM17.8985 19.875C17.9528 19.9604 17.9892 20.0559 18.0057 20.1557C18.0221 20.2555 18.0181 20.3576 17.9941 20.4558C17.97 20.5541 17.9263 20.6464 17.8656 20.7274C17.8049 20.8083 17.7285 20.8761 17.6409 20.9267C17.5534 20.9774 17.4565 21.0097 17.356 21.0219C17.2556 21.0341 17.1538 21.0259 17.0566 20.9977C16.9595 20.9695 16.8691 20.922 16.7908 20.8579C16.7125 20.7939 16.6479 20.7147 16.601 20.625C16.1286 19.8251 15.4557 19.1621 14.6488 18.7015C13.8419 18.2409 12.9289 17.9987 11.9998 17.9987C11.0707 17.9987 10.1577 18.2409 9.35077 18.7015C8.54388 19.1621 7.871 19.8251 7.39855 20.625C7.35166 20.7147 7.28713 20.7939 7.20883 20.8579C7.13054 20.922 7.04009 20.9695 6.94295 20.9977C6.8458 21.0259 6.74396 21.0341 6.64355 21.0219C6.54313 21.0097 6.44622 20.9774 6.35865 20.9267C6.27108 20.8761 6.19465 20.8083 6.13396 20.7274C6.07327 20.6464 6.02958 20.5541 6.00552 20.4558C5.98145 20.3576 5.97751 20.2555 5.99393 20.1557C6.01034 20.0559 6.04678 19.9604 6.10105 19.875C6.82817 18.6257 7.93685 17.6426 9.26417 17.07C8.51729 16.4982 7.96838 15.7067 7.69461 14.8068C7.42083 13.9068 7.43595 12.9437 7.73784 12.0528C8.03973 11.1619 8.61321 10.388 9.37767 9.83993C10.1421 9.29182 11.0591 8.99704 11.9998 8.99704C12.9405 8.99704 13.8575 9.29182 14.6219 9.83993C15.3864 10.388 15.9599 11.1619 16.2617 12.0528C16.5636 12.9437 16.5788 13.9068 16.305 14.8068C16.0312 15.7067 15.4823 16.4982 14.7354 17.07C16.0627 17.6426 17.1714 18.6257 17.8985 19.875ZM11.9998 16.5C12.5931 16.5 13.1732 16.3241 13.6665 15.9945C14.1599 15.6648 14.5444 15.1963 14.7714 14.6481C14.9985 14.0999 15.0579 13.4967 14.9422 12.9148C14.8264 12.3328 14.5407 11.7983 14.1211 11.3787C13.7016 10.9592 13.167 10.6734 12.5851 10.5577C12.0031 10.4419 11.3999 10.5013 10.8517 10.7284C10.3036 10.9555 9.83503 11.34 9.50539 11.8333C9.17574 12.3267 8.9998 12.9067 8.9998 13.5C8.9998 14.2957 9.31587 15.0588 9.87848 15.6214C10.4411 16.184 11.2041 16.5 11.9998 16.5ZM6.7498 11.25C6.7498 11.0511 6.67078 10.8604 6.53013 10.7197C6.38947 10.5791 6.19871 10.5 5.9998 10.5C5.57898 10.5 5.1666 10.382 4.80952 10.1593C4.45243 9.93665 4.16494 9.61831 3.9797 9.24046C3.79446 8.8626 3.7189 8.44037 3.76161 8.02173C3.80431 7.60308 3.96356 7.2048 4.22127 6.87213C4.47898 6.53946 4.82483 6.28572 5.21951 6.13975C5.6142 5.99378 6.04192 5.96142 6.45408 6.04634C6.86624 6.13127 7.24632 6.33008 7.55115 6.62019C7.85598 6.91031 8.07334 7.28009 8.17855 7.68755C8.22827 7.88024 8.35251 8.04529 8.52393 8.14639C8.69535 8.24748 8.89991 8.27634 9.09261 8.22661C9.28531 8.17688 9.45035 8.05264 9.55145 7.88122C9.65254 7.7098 9.6814 7.50524 9.63167 7.31255C9.48565 6.74753 9.20977 6.22439 8.82599 5.78475C8.44221 5.34511 7.96112 5.00111 7.421 4.78012C6.88088 4.55913 6.29664 4.46725 5.71476 4.51179C5.13288 4.55633 4.56942 4.73606 4.06923 5.03668C3.56903 5.3373 3.1459 5.75051 2.8335 6.24344C2.5211 6.73636 2.32806 7.2954 2.26974 7.87606C2.21141 8.45671 2.28941 9.04297 2.49752 9.58818C2.70564 10.1334 3.03813 10.6225 3.46855 11.0166C2.44975 11.4586 1.56422 12.1593 0.899796 13.0491C0.780324 13.2082 0.72896 13.4083 0.757003 13.6053C0.785045 13.8023 0.890197 13.9801 1.04933 14.0996C1.20846 14.219 1.40853 14.2704 1.60553 14.2424C1.80253 14.2143 1.98032 14.1092 2.0998 13.95C2.55185 13.3424 3.14025 12.8494 3.81763 12.5107C4.49502 12.172 5.24246 11.9971 5.9998 12C6.19871 12 6.38947 11.921 6.53013 11.7804C6.67078 11.6397 6.7498 11.449 6.7498 11.25Z" fill="black"/>
</g>
</svg>
