<svg width="24" height="24" viewBox="0 0 24 24" fill="none" xmlns="http://www.w3.org/2000/svg">
<g id="Help">
<path id="Vector" d="M13.4038 17.25C13.4038 17.4782 13.3362 17.7013 13.2094 17.891C13.0826 18.0808 12.9024 18.2287 12.6916 18.316C12.4807 18.4033 12.2487 18.4262 12.0249 18.3817C11.8011 18.3372 11.5955 18.2273 11.4341 18.0659C11.2727 17.9045 11.1628 17.6989 11.1183 17.4751C11.0738 17.2513 11.0967 17.0193 11.184 16.8084C11.2713 16.5976 11.4192 16.4174 11.609 16.2906C11.7987 16.1638 12.0218 16.0962 12.25 16.0962C12.556 16.0962 12.8495 16.2177 13.0659 16.4341C13.2823 16.6505 13.4038 16.944 13.4038 17.25ZM12.25 6.86538C10.1288 6.86538 8.40385 8.41827 8.40385 10.3269V10.7115C8.40385 10.9155 8.48489 11.1112 8.62915 11.2555C8.77341 11.3997 8.96907 11.4808 9.17308 11.4808C9.37709 11.4808 9.57275 11.3997 9.71701 11.2555C9.86127 11.1112 9.94231 10.9155 9.94231 10.7115V10.3269C9.94231 9.26923 10.9779 8.40384 12.25 8.40384C13.5221 8.40384 14.5577 9.26923 14.5577 10.3269C14.5577 11.3846 13.5221 12.25 12.25 12.25C12.046 12.25 11.8503 12.331 11.7061 12.4753C11.5618 12.6196 11.4808 12.8152 11.4808 13.0192V13.7885C11.4808 13.9925 11.5618 14.1881 11.7061 14.3324C11.8503 14.4766 12.046 14.5577 12.25 14.5577C12.454 14.5577 12.6497 14.4766 12.7939 14.3324C12.9382 14.1881 13.0192 13.9925 13.0192 13.7885V13.7192C14.7731 13.3971 16.0962 11.9981 16.0962 10.3269C16.0962 8.41827 14.3712 6.86538 12.25 6.86538ZM22.25 12.25C22.25 14.2278 21.6635 16.1612 20.5647 17.8057C19.4659 19.4502 17.9041 20.7319 16.0768 21.4888C14.2496 22.2457 12.2389 22.4437 10.2991 22.0578C8.35929 21.672 6.57746 20.7196 5.17894 19.3211C3.78041 17.9225 2.828 16.1407 2.44215 14.2009C2.0563 12.2611 2.25433 10.2504 3.01121 8.42316C3.76809 6.5959 5.04981 5.03412 6.6943 3.9353C8.33879 2.83649 10.2722 2.25 12.25 2.25C14.9013 2.2528 17.4432 3.30727 19.318 5.18202C21.1927 7.05678 22.2472 9.59869 22.25 12.25ZM20.7115 12.25C20.7115 10.5765 20.2153 8.94051 19.2855 7.54902C18.3557 6.15753 17.0342 5.07299 15.4881 4.43256C13.9419 3.79212 12.2406 3.62456 10.5992 3.95105C8.95786 4.27754 7.45016 5.08342 6.26679 6.26679C5.08343 7.45016 4.27754 8.95786 3.95105 10.5992C3.62456 12.2406 3.79213 13.9419 4.43256 15.4881C5.073 17.0342 6.15753 18.3557 7.54902 19.2855C8.94052 20.2153 10.5765 20.7115 12.25 20.7115C14.4934 20.709 16.6441 19.8167 18.2304 18.2304C19.8167 16.6441 20.709 14.4934 20.7115 12.25Z" fill="#6B7280"/>
</g>
</svg>
