<svg width="24" height="24" viewBox="0 0 24 24" fill="none" xmlns="http://www.w3.org/2000/svg">
<g id="Integration">
<path id="Vector" d="M13.9338 12.9233C13.8674 12.8568 13.7886 12.8042 13.7019 12.7682C13.6152 12.7323 13.5223 12.7138 13.4284 12.7138C13.3346 12.7138 13.2416 12.7323 13.1549 12.7682C13.0682 12.8042 12.9894 12.8568 12.9231 12.9233L11.2857 14.5616L9.43843 12.7143L11.0767 11.0769C11.2108 10.9429 11.2861 10.7611 11.2861 10.5716C11.2861 10.382 11.2108 10.2003 11.0767 10.0662C10.9427 9.93222 10.761 9.85693 10.5714 9.85693C10.3819 9.85693 10.2001 9.93222 10.0661 10.0662L8.42866 11.7046L6.79124 10.0662C6.65722 9.93222 6.47544 9.85693 6.28591 9.85693C6.09637 9.85693 5.9146 9.93222 5.78057 10.0662C5.64655 10.2003 5.57126 10.382 5.57126 10.5716C5.57126 10.7611 5.64655 10.9429 5.78057 11.0769L6.34751 11.643L4.26547 13.7241C4.0001 13.9894 3.7896 14.3044 3.64598 14.6511C3.50236 14.9977 3.42844 15.3693 3.42844 15.7445C3.42844 16.1198 3.50236 16.4914 3.64598 16.838C3.7896 17.1847 4.0001 17.4997 4.26547 17.765L4.7458 18.2444L2.20932 20.78C2.14295 20.8464 2.09031 20.9252 2.0544 21.0119C2.01848 21.0986 2 21.1915 2 21.2854C2 21.3792 2.01848 21.4721 2.0544 21.5588C2.09031 21.6455 2.14295 21.7243 2.20932 21.7907C2.34334 21.9247 2.52511 22 2.71465 22C2.8085 22 2.90143 21.9815 2.98813 21.9456C3.07484 21.9097 3.15362 21.857 3.21998 21.7907L5.75557 19.2542L6.23502 19.7345C6.50032 19.9999 6.8153 20.2104 7.16197 20.354C7.50865 20.4976 7.88021 20.5716 8.25545 20.5716C8.6307 20.5716 9.00226 20.4976 9.34893 20.354C9.6956 20.2104 10.0106 19.9999 10.2759 19.7345L12.357 17.6525L12.9231 18.2194C12.9894 18.2858 13.0682 18.3384 13.1549 18.3743C13.2416 18.4103 13.3346 18.4287 13.4284 18.4287C13.5223 18.4287 13.6152 18.4103 13.7019 18.3743C13.7886 18.3384 13.8674 18.2858 13.9338 18.2194C14.0001 18.1531 14.0528 18.0743 14.0887 17.9876C14.1246 17.9009 14.1431 17.8079 14.1431 17.7141C14.1431 17.6202 14.1246 17.5273 14.0887 17.4406C14.0528 17.3539 14.0001 17.2751 13.9338 17.2088L12.2954 15.5713L13.9338 13.9339C14.0002 13.8676 14.0528 13.7888 14.0888 13.7021C14.1247 13.6154 14.1432 13.5224 14.1432 13.4286C14.1432 13.3347 14.1247 13.2418 14.0888 13.1551C14.0528 13.0684 14.0002 12.9896 13.9338 12.9233ZM9.26523 18.7265C8.99736 18.9942 8.63415 19.1446 8.25545 19.1446C7.87675 19.1446 7.51355 18.9942 7.24568 18.7265L5.27613 16.7543C5.00844 16.4864 4.85807 16.1232 4.85807 15.7445C4.85807 15.3658 5.00844 15.0026 5.27613 14.7348L7.35728 12.6527L11.3473 16.6427L9.26523 18.7265ZM21.7905 2.20948C21.7242 2.14307 21.6454 2.09039 21.5587 2.05445C21.472 2.0185 21.3791 2 21.2852 2C21.1913 2 21.0984 2.0185 21.0117 2.05445C20.925 2.09039 20.8462 2.14307 20.7799 2.20948L18.2443 4.74597L17.7648 4.26563C17.2284 3.73079 16.5019 3.43045 15.7444 3.43045C14.9869 3.43045 14.2603 3.73079 13.7239 4.26563L11.6428 6.34768L11.0767 5.78074C10.9427 5.64672 10.761 5.57142 10.5714 5.57142C10.3819 5.57142 10.2001 5.64672 10.0661 5.78074C9.93206 5.91476 9.85677 6.09653 9.85677 6.28607C9.85677 6.47561 9.93206 6.65738 10.0661 6.7914L17.2086 13.9339C17.275 14.0003 17.3537 14.0529 17.4404 14.0888C17.5272 14.1247 17.6201 14.1432 17.7139 14.1432C17.8078 14.1432 17.9007 14.1247 17.9874 14.0888C18.0741 14.0529 18.1529 14.0003 18.2193 13.9339C18.2856 13.8676 18.3383 13.7888 18.3742 13.7021C18.4101 13.6154 18.4286 13.5224 18.4286 13.4286C18.4286 13.3347 18.4101 13.2418 18.3742 13.1551C18.3383 13.0684 18.2856 12.9896 18.2193 12.9233L17.6523 12.3572L19.7344 10.2761C19.9997 10.0108 20.2102 9.69577 20.3539 9.3491C20.4975 9.00243 20.5714 8.63086 20.5714 8.25562C20.5714 7.88038 20.4975 7.50881 20.3539 7.16214C20.2102 6.81547 19.9997 6.50049 19.7344 6.23518L19.254 5.75574L21.7905 3.22015C21.8569 3.15381 21.9096 3.07504 21.9456 2.98833C21.9815 2.90162 22 2.80868 22 2.71481C22 2.62095 21.9815 2.52801 21.9456 2.4413C21.9096 2.35459 21.8569 2.27582 21.7905 2.20948ZM18.7237 9.26271L16.6426 11.3474L12.6526 7.35745L14.7346 5.2763C15.0025 5.0086 15.3657 4.85823 15.7444 4.85823C16.1231 4.85823 16.4863 5.0086 16.7542 5.2763L18.7237 7.24049C18.8571 7.37322 18.9629 7.53099 19.0351 7.70474C19.1073 7.87849 19.1445 8.06479 19.1445 8.25294C19.1445 8.44109 19.1073 8.62739 19.0351 8.80114C18.9629 8.97489 18.8571 9.13266 18.7237 9.26539V9.26271Z" fill="#6B7280"/>
</g>
</svg>
