<svg width="18" height="20" viewBox="0 0 18 20" fill="none" xmlns="http://www.w3.org/2000/svg">
<g id="Group 3">
<path id="Vector" d="M16.0417 1.53846H13.8542V0.769231C13.8542 0.565218 13.7773 0.369561 13.6406 0.225302C13.5039 0.0810437 13.3184 0 13.125 0C12.9316 0 12.7461 0.0810437 12.6094 0.225302C12.4727 0.369561 12.3958 0.565218 12.3958 0.769231V1.53846H5.10417V0.769231C5.10417 0.565218 5.02734 0.369561 4.8906 0.225302C4.75385 0.0810437 4.56839 0 4.375 0C4.18161 0 3.99615 0.0810437 3.8594 0.225302C3.72266 0.369561 3.64583 0.565218 3.64583 0.769231V1.53846H1.45833C1.07156 1.53846 0.700626 1.70055 0.427136 1.98907C0.153645 2.27758 0 2.6689 0 3.07692V18.4615C0 18.8696 0.153645 19.2609 0.427136 19.5494C0.700626 19.8379 1.07156 20 1.45833 20H16.0417C16.4284 20 16.7994 19.8379 17.0729 19.5494C17.3464 19.2609 17.5 18.8696 17.5 18.4615V3.07692C17.5 2.6689 17.3464 2.27758 17.0729 1.98907C16.7994 1.70055 16.4284 1.53846 16.0417 1.53846ZM3.64583 3.07692V3.84615C3.64583 4.05017 3.72266 4.24582 3.8594 4.39008C3.99615 4.53434 4.18161 4.61538 4.375 4.61538C4.56839 4.61538 4.75385 4.53434 4.8906 4.39008C5.02734 4.24582 5.10417 4.05017 5.10417 3.84615V3.07692H12.3958V3.84615C12.3958 4.05017 12.4727 4.24582 12.6094 4.39008C12.7461 4.53434 12.9316 4.61538 13.125 4.61538C13.3184 4.61538 13.5039 4.53434 13.6406 4.39008C13.7773 4.24582 13.8542 4.05017 13.8542 3.84615V3.07692H16.0417V6.15385H1.45833V3.07692H3.64583ZM16.0417 18.4615H1.45833V7.69231H16.0417V18.4615Z" fill="black"/>
<path id="Vector_2" d="M10.4196 10C9.72879 10 9.12394 10.2971 8.7469 10.7992C8.36987 10.2971 7.76501 10 7.07418 10C6.52426 10.0006 5.99705 10.2193 5.6082 10.6082C5.21935 10.997 5.00062 11.5243 5 12.0742C5 14.416 8.47224 16.3115 8.62011 16.3898C8.65909 16.4108 8.70265 16.4218 8.7469 16.4218C8.79116 16.4218 8.83472 16.4108 8.8737 16.3898C9.02157 16.3115 12.4938 14.416 12.4938 12.0742C12.4932 11.5243 12.2745 10.997 11.8856 10.6082C11.4968 10.2193 10.9695 10.0006 10.4196 10ZM8.7469 15.8478C8.13603 15.4919 5.53527 13.8704 5.53527 12.0742C5.5358 11.6662 5.69811 11.2751 5.98659 10.9866C6.27508 10.6981 6.6662 10.5358 7.07418 10.5353C7.72487 10.5353 8.27118 10.8819 8.49934 11.4385C8.51951 11.4876 8.55381 11.5296 8.59789 11.5592C8.64197 11.5887 8.69384 11.6045 8.7469 11.6045C8.79997 11.6045 8.85184 11.5887 8.89592 11.5592C8.94 11.5296 8.9743 11.4876 8.99447 11.4385C9.22263 10.8809 9.76894 10.5353 10.4196 10.5353C10.8276 10.5358 11.2187 10.6981 11.5072 10.9866C11.7957 11.2751 11.958 11.6662 11.9585 12.0742C11.9585 13.8677 9.35711 15.4916 8.7469 15.8478Z" fill="black"/>
</g>
</svg>
