<svg width="24" height="24" viewBox="0 0 24 24" fill="none" xmlns="http://www.w3.org/2000/svg">
<g id="poll outlined">
<path id="Vector" d="M21.2308 19.1538H20.4615V3.76923C20.4615 3.56522 20.3805 3.36956 20.2362 3.2253C20.092 3.08104 19.8963 3 19.6923 3H14.3077C14.1037 3 13.908 3.08104 13.7638 3.2253C13.6195 3.36956 13.5385 3.56522 13.5385 3.76923V7.61538H8.92308C8.71906 7.61538 8.52341 7.69643 8.37915 7.84069C8.23489 7.98495 8.15385 8.1806 8.15385 8.38462V12.2308H4.30769C4.10368 12.2308 3.90802 12.3118 3.76376 12.4561C3.61951 12.6003 3.53846 12.796 3.53846 13V19.1538H2.76923C2.56522 19.1538 2.36956 19.2349 2.2253 19.3791C2.08104 19.5234 2 19.7191 2 19.9231C2 20.1271 2.08104 20.3227 2.2253 20.467C2.36956 20.6113 2.56522 20.6923 2.76923 20.6923H21.2308C21.4348 20.6923 21.6304 20.6113 21.7747 20.467C21.919 20.3227 22 20.1271 22 19.9231C22 19.7191 21.919 19.5234 21.7747 19.3791C21.6304 19.2349 21.4348 19.1538 21.2308 19.1538ZM15.0769 4.53846H18.9231V19.1538H15.0769V4.53846ZM9.69231 9.15385H13.5385V19.1538H9.69231V9.15385ZM5.07692 13.7692H8.15385V19.1538H5.07692V13.7692Z" fill="black"/>
</g>
</svg>
