<svg width="18" height="20" viewBox="0 0 18 20" fill="none" xmlns="http://www.w3.org/2000/svg">
<g id="Group 4">
<path id="Vector" d="M16.0417 1.53846H13.8542V0.769231C13.8542 0.565218 13.7773 0.369561 13.6406 0.225302C13.5039 0.0810437 13.3184 0 13.125 0C12.9316 0 12.7461 0.0810437 12.6094 0.225302C12.4727 0.369561 12.3958 0.565218 12.3958 0.769231V1.53846H5.10417V0.769231C5.10417 0.565218 5.02734 0.369561 4.8906 0.225302C4.75385 0.0810437 4.56839 0 4.375 0C4.18161 0 3.99615 0.0810437 3.8594 0.225302C3.72266 0.369561 3.64583 0.565218 3.64583 0.769231V1.53846H1.45833C1.07156 1.53846 0.700626 1.70055 0.427136 1.98907C0.153645 2.27758 0 2.6689 0 3.07692V18.4615C0 18.8696 0.153645 19.2609 0.427136 19.5494C0.700626 19.8379 1.07156 20 1.45833 20H16.0417C16.4284 20 16.7994 19.8379 17.0729 19.5494C17.3464 19.2609 17.5 18.8696 17.5 18.4615V3.07692C17.5 2.6689 17.3464 2.27758 17.0729 1.98907C16.7994 1.70055 16.4284 1.53846 16.0417 1.53846ZM3.64583 3.07692V3.84615C3.64583 4.05017 3.72266 4.24582 3.8594 4.39008C3.99615 4.53434 4.18161 4.61538 4.375 4.61538C4.56839 4.61538 4.75385 4.53434 4.8906 4.39008C5.02734 4.24582 5.10417 4.05017 5.10417 3.84615V3.07692H12.3958V3.84615C12.3958 4.05017 12.4727 4.24582 12.6094 4.39008C12.7461 4.53434 12.9316 4.61538 13.125 4.61538C13.3184 4.61538 13.5039 4.53434 13.6406 4.39008C13.7773 4.24582 13.8542 4.05017 13.8542 3.84615V3.07692H16.0417V6.15385H1.45833V3.07692H3.64583ZM16.0417 18.4615H1.45833V7.69231H16.0417V18.4615Z" fill="#6B7280"/>
<g id="Group 2">
<rect id="Rectangle 3463156" x="2.5" y="8.75" width="2.5" height="2.5" rx="1" fill="#6B7280"/>
<rect id="Rectangle 3463157" x="7.5" y="8.75" width="2.5" height="2.5" rx="1" fill="#6B7280"/>
<rect id="Rectangle 3463158" x="12.5" y="8.75" width="2.5" height="2.5" rx="1" fill="#6B7280"/>
<rect id="Rectangle 3463159" x="2.5" y="13.75" width="2.5" height="2.5" rx="1" fill="#6B7280"/>
<rect id="Rectangle 3463160" x="7.5" y="13.75" width="2.5" height="2.5" rx="1" fill="#6B7280"/>
<rect id="Rectangle 3463161" x="12.5" y="13.75" width="2.5" height="2.5" rx="1" fill="#6B7280"/>
</g>
</g>
</svg>
