<svg width="24" height="24" viewBox="0 0 24 24" fill="none" xmlns="http://www.w3.org/2000/svg">
<g id="settings">
<path id="Vector" d="M11.9986 7.41212C11.0915 7.41212 10.2047 7.68111 9.45047 8.18507C8.69623 8.68904 8.10838 9.40534 7.76124 10.2434C7.4141 11.0815 7.32327 12.0037 7.50024 12.8933C7.67721 13.783 8.11403 14.6003 8.75546 15.2417C9.39688 15.8831 10.2141 16.3199 11.1038 16.4969C11.9935 16.6739 12.9157 16.583 13.7537 16.2359C14.5918 15.8888 15.3081 15.3009 15.8121 14.5467C16.316 13.7924 16.585 12.9057 16.585 11.9986C16.5838 10.7826 16.1001 9.61671 15.2403 8.75685C14.3804 7.897 13.2146 7.41338 11.9986 7.41212ZM11.9986 15.0562C11.3938 15.0562 10.8027 14.8769 10.2998 14.5409C9.79701 14.2049 9.40511 13.7274 9.17368 13.1687C8.94226 12.61 8.8817 11.9952 8.99968 11.4021C9.11766 10.8089 9.40888 10.2641 9.83649 9.83649C10.2641 9.40888 10.8089 9.11766 11.4021 8.99968C11.9952 8.8817 12.61 8.94226 13.1687 9.17368C13.7274 9.40511 14.2049 9.79701 14.5409 10.2998C14.8769 10.8027 15.0562 11.3938 15.0562 11.9986C15.0562 12.8095 14.7341 13.5872 14.1606 14.1606C13.5872 14.7341 12.8095 15.0562 11.9986 15.0562ZM20.4071 12.205C20.4109 12.0674 20.4109 11.9298 20.4071 11.7922L21.8327 10.0111C21.9074 9.91759 21.9592 9.80783 21.9837 9.69065C22.0083 9.57348 22.005 9.45218 21.9741 9.33651C21.7404 8.45802 21.3908 7.61454 20.9345 6.8283C20.8748 6.72541 20.7918 6.63788 20.6923 6.57269C20.5928 6.5075 20.4794 6.46644 20.3612 6.45278L18.0947 6.20053C18.0004 6.10116 17.9049 6.0056 17.8081 5.91388L17.5405 3.64167C17.5268 3.52339 17.4856 3.40996 17.4202 3.31042C17.3548 3.21089 17.2671 3.128 17.1641 3.06836C16.3775 2.61292 15.5341 2.26367 14.6558 2.02972C14.5401 1.99895 14.4188 1.99581 14.3016 2.02054C14.1844 2.04527 14.0747 2.09718 13.9813 2.1721L12.205 3.59007C12.0674 3.59007 11.9298 3.59007 11.7922 3.59007L10.0111 2.16732C9.91759 2.09257 9.80783 2.04083 9.69065 2.01626C9.57348 1.9917 9.45218 1.995 9.33651 2.0259C8.45816 2.26003 7.61474 2.60961 6.8283 3.0655C6.72541 3.12524 6.63788 3.20818 6.57269 3.30771C6.5075 3.40724 6.46644 3.52061 6.45278 3.6388L6.20053 5.9091C6.10116 6.00401 6.0056 6.09956 5.91388 6.19575L3.64167 6.4566C3.52339 6.47037 3.40996 6.51157 3.31042 6.57693C3.21089 6.64229 3.128 6.73001 3.06836 6.83308C2.61292 7.61962 2.26367 8.46303 2.02972 9.34129C1.99895 9.45703 1.99581 9.57837 2.02054 9.69555C2.04527 9.81273 2.09718 9.92245 2.1721 10.0159L3.59007 11.7922C3.59007 11.9298 3.59007 12.0674 3.59007 12.205L2.16732 13.986C2.09257 14.0795 2.04083 14.1893 2.01626 14.3065C1.9917 14.4237 1.995 14.545 2.0259 14.6606C2.25961 15.5391 2.60921 16.3826 3.0655 17.1688C3.12524 17.2717 3.20818 17.3593 3.30771 17.4244C3.40724 17.4896 3.52061 17.5307 3.6388 17.5444L5.90528 17.7966C6.00019 17.896 6.09574 17.9915 6.19193 18.0833L6.4566 20.3555C6.47037 20.4737 6.51157 20.5872 6.57693 20.6867C6.64229 20.7862 6.73001 20.8691 6.83308 20.9288C7.61962 21.3842 8.46303 21.7335 9.34129 21.9674C9.45703 21.9982 9.57837 22.0013 9.69555 21.9766C9.81273 21.9519 9.92245 21.9 10.0159 21.825L11.7922 20.4071C11.9298 20.4109 12.0674 20.4109 12.205 20.4071L13.986 21.8327C14.0795 21.9074 14.1893 21.9592 14.3065 21.9837C14.4237 22.0083 14.545 22.005 14.6606 21.9741C15.5391 21.7404 16.3826 21.3908 17.1688 20.9345C17.2717 20.8748 17.3593 20.7918 17.4244 20.6923C17.4896 20.5928 17.5307 20.4794 17.5444 20.3612L17.7966 18.0947C17.896 18.0004 17.9915 17.9049 18.0833 17.8081L20.3555 17.5405C20.4737 17.5268 20.5872 17.4856 20.6867 17.4202C20.7862 17.3548 20.8691 17.2671 20.9288 17.1641C21.3842 16.3775 21.7335 15.5341 21.9674 14.6558C21.9982 14.5401 22.0013 14.4188 21.9766 14.3016C21.9519 14.1844 21.9 14.0747 21.825 13.9813L20.4071 12.205ZM18.8687 11.5839C18.8849 11.8601 18.8849 12.137 18.8687 12.4133C18.8573 12.6024 18.9166 12.789 19.0349 12.9369L20.3908 14.631C20.2352 15.1254 20.036 15.6051 19.7955 16.0643L17.6361 16.3089C17.448 16.3298 17.2744 16.4196 17.1488 16.5611C16.9648 16.768 16.7689 16.9639 16.5621 17.1478C16.4206 17.2734 16.3307 17.4471 16.3098 17.6351L16.07 19.7927C15.6109 20.0333 15.1312 20.2325 14.6367 20.388L12.9417 19.0321C12.806 18.9237 12.6375 18.8647 12.4639 18.8649H12.418C12.1418 18.8811 11.8649 18.8811 11.5887 18.8649C11.3995 18.8535 11.2129 18.9127 11.065 19.0311L9.36613 20.388C8.87169 20.2324 8.39205 20.0332 7.93287 19.7927L7.68826 17.6361C7.66738 17.448 7.5775 17.2744 7.436 17.1488C7.22914 16.9648 7.03325 16.7689 6.84932 16.5621C6.7237 16.4206 6.55007 16.3307 6.36201 16.3098L4.20447 16.069C3.96386 15.6099 3.76465 15.1303 3.60918 14.6358L4.96505 12.9407C5.08345 12.7928 5.1427 12.6062 5.13131 12.4171C5.11507 12.1409 5.11507 11.8639 5.13131 11.5877C5.1427 11.3986 5.08345 11.212 4.96505 11.0641L3.60918 9.36613C3.76476 8.87169 3.96398 8.39205 4.20447 7.93287L6.36105 7.68826C6.54911 7.66738 6.72275 7.5775 6.84836 7.436C7.03229 7.22914 7.22819 7.03325 7.43505 6.84932C7.57711 6.72362 7.66736 6.54959 7.68826 6.36105L7.92809 4.20447C8.38722 3.96386 8.86687 3.76465 9.36136 3.60918L11.0564 4.96505C11.2043 5.08345 11.3909 5.1427 11.5801 5.13131C11.8563 5.11507 12.1332 5.11507 12.4094 5.13131C12.5985 5.1427 12.7852 5.08345 12.9331 4.96505L14.631 3.60918C15.1254 3.76476 15.6051 3.96398 16.0643 4.20447L16.3089 6.36105C16.3298 6.54911 16.4196 6.72275 16.5611 6.84836C16.768 7.03229 16.9639 7.22819 17.1478 7.43505C17.2734 7.57655 17.4471 7.66643 17.6351 7.6873L19.7927 7.92714C20.0333 8.38626 20.2325 8.86591 20.388 9.3604L19.0321 11.0555C18.9125 11.2046 18.8532 11.3932 18.8658 11.5839H18.8687Z" fill="#6B7280"/>
</g>
</svg>
