<svg width="20" height="20" viewBox="0 0 20 20" fill="none" xmlns="http://www.w3.org/2000/svg">
<g id="video-camera">
<path id="Vector" d="M16.0732 6.64649L16.0731 6.64658C16.0073 6.67943 15.952 6.72994 15.9134 6.79244C15.8748 6.85481 15.8543 6.92667 15.8542 7C15.8542 7.00015 15.8542 7.0003 15.8542 7.00046M16.0732 6.64649L15 7L15.8542 7.00046M16.0732 6.64649L18.5731 5.39658L16.0732 6.64649ZM15.8542 7.00046V11.9995M15.8542 7.00046V11.9995M15.8542 11.9995L15.8542 12L15.8542 11.9995ZM0.854167 4.5C0.854167 4.0635 1.02757 3.64487 1.33622 3.33622C1.64487 3.02757 2.0635 2.85417 2.5 2.85417H10C10.4365 2.85417 10.8551 3.02757 11.1638 3.33622C11.4724 3.64487 11.6458 4.0635 11.6458 4.5V14.5C11.6458 14.9365 11.4724 15.3551 11.1638 15.6638C10.8551 15.9724 10.4365 16.1458 10 16.1458H2.5C2.0635 16.1458 1.64487 15.9724 1.33622 15.6638C1.02757 15.3551 0.854167 14.9365 0.854167 14.5V4.5Z" stroke="black" stroke-width="1.70833"/>
</g>
</svg>
